M48
; DRILL file {KiCad (5.1.2)-2} date 07/22/19 16:57:10
; FORMAT={-:-/ absolute / inch / decimal}
; #@! TF.CreationDate,2019-07-22T16:57:10+02:00
; #@! TF.GenerationSoftware,Kicad,Pcbnew,(5.1.2)-2
; #@! TF.FileFunction,Plated,1,2,PTH
FMAT,2
INCH
T1C0.0315
T2C0.0354
T3C0.0394
T4C0.0433
T5C0.0472
%
G90
G05
T1
X0.8465Y-1.0433
X0.9449Y-1.0433
X2.88Y-0.9
X2.88Y-1.3
X2.69Y-0.9
X2.69Y-1.3
X1.4665Y-1.0433
X1.8665Y-1.0433
X1.1024Y-1.0433
X1.2008Y-1.0433
X1.59Y-0.38
X1.59Y-0.68
X1.69Y-0.38
X1.69Y-0.68
X1.79Y-0.38
X1.79Y-0.68
X1.89Y-0.38
X1.89Y-0.68
X1.99Y-0.38
X1.99Y-0.68
X2.09Y-0.38
X2.09Y-0.68
X2.19Y-0.38
X2.19Y-0.68
X2.29Y-0.38
X2.29Y-0.68
X2.39Y-0.38
X2.39Y-0.68
X2.49Y-0.38
X2.49Y-0.68
X2.59Y-0.38
X2.59Y-0.68
X2.69Y-0.38
X2.69Y-0.68
X2.79Y-0.38
X2.79Y-0.68
X2.89Y-0.38
X2.89Y-0.68
X1.6929Y-0.1575
X2.0929Y-0.1575
X1.3878Y-0.3874
X1.3878Y-0.7874
X2.51Y-0.9
X2.51Y-1.3
X3.07Y-0.9
X3.07Y-1.3
X2.1063Y-0.8465
X2.2047Y-0.8465
T2
X3.28Y-0.82
X3.28Y-0.92
X1.3862Y-0.1772
X1.4862Y-0.1772
T3
X3.19Y-0.43
X3.19Y-0.53
X3.19Y-0.63
X3.29Y-0.43
X3.29Y-0.53
X3.29Y-0.63
X2.5165Y-0.1181
X2.6165Y-0.1181
X2.7165Y-0.1181
X3.3Y-1.21
X3.3Y-1.31
X3.3Y-1.41
X3.3Y-1.51
T4
X0.2134Y-1.2992
X0.3134Y-1.2992
X0.4134Y-1.2992
X0.9449Y-0.8661
X1.0449Y-0.8661
X1.1449Y-0.8661
X1.8701Y-1.2205
X1.8701Y-1.4764
X2.0472Y-1.2205
X2.0472Y-1.4764
X1.1976Y-1.2992
X1.2976Y-1.2992
X1.3976Y-1.2992
X0.7087Y-1.2992
X0.8087Y-1.2992
X0.9087Y-1.2992
T5
X0.1772Y-0.6024
X0.1772Y-1.1024
X0.6496Y-0.6024
X0.6496Y-1.1024
X0.4134Y-0.6024
X0.4134Y-1.1024
T1
G00X0.3425Y-0.1929
M15
G01X0.3425Y-0.2795
M16
G05
G00X0.4094Y-0.4252
M15
G01X0.4961Y-0.4252
M16
G05
G00X0.5709Y-0.185
M15
G01X0.5709Y-0.2874
M16
G05
T0
M30
