G04 #@! TF.GenerationSoftware,KiCad,Pcbnew,(5.1.2)-2*
G04 #@! TF.CreationDate,2019-10-07T13:10:27+02:00*
G04 #@! TF.ProjectId,IR_RGB_LEDSTRIP_DRIVER,49525f52-4742-45f4-9c45-445354524950,rev?*
G04 #@! TF.SameCoordinates,Original*
G04 #@! TF.FileFunction,Legend,Top*
G04 #@! TF.FilePolarity,Positive*
%FSLAX46Y46*%
G04 Gerber Fmt 4.6, Leading zero omitted, Abs format (unit mm)*
G04 Created by KiCad (PCBNEW (5.1.2)-2) date 2019-10-07 13:10:27*
%MOMM*%
%LPD*%
G04 APERTURE LIST*
%ADD10C,0.150000*%
%ADD11C,0.250000*%
%ADD12C,0.120000*%
G04 APERTURE END LIST*
D10*
X87511380Y-17342952D02*
X86511380Y-17342952D01*
X87416142Y-16295333D02*
X87463761Y-16342952D01*
X87511380Y-16485809D01*
X87511380Y-16581047D01*
X87463761Y-16723904D01*
X87368523Y-16819142D01*
X87273285Y-16866761D01*
X87082809Y-16914380D01*
X86939952Y-16914380D01*
X86749476Y-16866761D01*
X86654238Y-16819142D01*
X86559000Y-16723904D01*
X86511380Y-16581047D01*
X86511380Y-16485809D01*
X86559000Y-16342952D01*
X86606619Y-16295333D01*
X87463761Y-15914380D02*
X87511380Y-15771523D01*
X87511380Y-15533428D01*
X87463761Y-15438190D01*
X87416142Y-15390571D01*
X87320904Y-15342952D01*
X87225666Y-15342952D01*
X87130428Y-15390571D01*
X87082809Y-15438190D01*
X87035190Y-15533428D01*
X86987571Y-15723904D01*
X86939952Y-15819142D01*
X86892333Y-15866761D01*
X86797095Y-15914380D01*
X86701857Y-15914380D01*
X86606619Y-15866761D01*
X86559000Y-15819142D01*
X86511380Y-15723904D01*
X86511380Y-15485809D01*
X86559000Y-15342952D01*
X87511380Y-14914380D02*
X86511380Y-14914380D01*
X86511380Y-14533428D01*
X86559000Y-14438190D01*
X86606619Y-14390571D01*
X86701857Y-14342952D01*
X86844714Y-14342952D01*
X86939952Y-14390571D01*
X86987571Y-14438190D01*
X87035190Y-14533428D01*
X87035190Y-14914380D01*
X87511380Y-13152476D02*
X86511380Y-13152476D01*
X86511380Y-12771523D01*
X86559000Y-12676285D01*
X86606619Y-12628666D01*
X86701857Y-12581047D01*
X86844714Y-12581047D01*
X86939952Y-12628666D01*
X86987571Y-12676285D01*
X87035190Y-12771523D01*
X87035190Y-13152476D01*
X87511380Y-11581047D02*
X87035190Y-11914380D01*
X87511380Y-12152476D02*
X86511380Y-12152476D01*
X86511380Y-11771523D01*
X86559000Y-11676285D01*
X86606619Y-11628666D01*
X86701857Y-11581047D01*
X86844714Y-11581047D01*
X86939952Y-11628666D01*
X86987571Y-11676285D01*
X87035190Y-11771523D01*
X87035190Y-12152476D01*
X86511380Y-10962000D02*
X86511380Y-10771523D01*
X86559000Y-10676285D01*
X86654238Y-10581047D01*
X86844714Y-10533428D01*
X87178047Y-10533428D01*
X87368523Y-10581047D01*
X87463761Y-10676285D01*
X87511380Y-10771523D01*
X87511380Y-10962000D01*
X87463761Y-11057238D01*
X87368523Y-11152476D01*
X87178047Y-11200095D01*
X86844714Y-11200095D01*
X86654238Y-11152476D01*
X86559000Y-11057238D01*
X86511380Y-10962000D01*
X86559000Y-9581047D02*
X86511380Y-9676285D01*
X86511380Y-9819142D01*
X86559000Y-9962000D01*
X86654238Y-10057238D01*
X86749476Y-10104857D01*
X86939952Y-10152476D01*
X87082809Y-10152476D01*
X87273285Y-10104857D01*
X87368523Y-10057238D01*
X87463761Y-9962000D01*
X87511380Y-9819142D01*
X87511380Y-9723904D01*
X87463761Y-9581047D01*
X87416142Y-9533428D01*
X87082809Y-9533428D01*
X87082809Y-9723904D01*
X87574380Y-37282095D02*
X87574380Y-37758285D01*
X86574380Y-37758285D01*
X87050571Y-36948761D02*
X87050571Y-36615428D01*
X87574380Y-36472571D02*
X87574380Y-36948761D01*
X86574380Y-36948761D01*
X86574380Y-36472571D01*
X87574380Y-36044000D02*
X86574380Y-36044000D01*
X86574380Y-35805904D01*
X86622000Y-35663047D01*
X86717238Y-35567809D01*
X86812476Y-35520190D01*
X87002952Y-35472571D01*
X87145809Y-35472571D01*
X87336285Y-35520190D01*
X87431523Y-35567809D01*
X87526761Y-35663047D01*
X87574380Y-35805904D01*
X87574380Y-36044000D01*
X87526761Y-35091619D02*
X87574380Y-34948761D01*
X87574380Y-34710666D01*
X87526761Y-34615428D01*
X87479142Y-34567809D01*
X87383904Y-34520190D01*
X87288666Y-34520190D01*
X87193428Y-34567809D01*
X87145809Y-34615428D01*
X87098190Y-34710666D01*
X87050571Y-34901142D01*
X87002952Y-34996380D01*
X86955333Y-35044000D01*
X86860095Y-35091619D01*
X86764857Y-35091619D01*
X86669619Y-35044000D01*
X86622000Y-34996380D01*
X86574380Y-34901142D01*
X86574380Y-34663047D01*
X86622000Y-34520190D01*
X86574380Y-34234476D02*
X86574380Y-33663047D01*
X87574380Y-33948761D02*
X86574380Y-33948761D01*
X87574380Y-32758285D02*
X87098190Y-33091619D01*
X87574380Y-33329714D02*
X86574380Y-33329714D01*
X86574380Y-32948761D01*
X86622000Y-32853523D01*
X86669619Y-32805904D01*
X86764857Y-32758285D01*
X86907714Y-32758285D01*
X87002952Y-32805904D01*
X87050571Y-32853523D01*
X87098190Y-32948761D01*
X87098190Y-33329714D01*
X87574380Y-32329714D02*
X86574380Y-32329714D01*
X87574380Y-31853523D02*
X86574380Y-31853523D01*
X86574380Y-31472571D01*
X86622000Y-31377333D01*
X86669619Y-31329714D01*
X86764857Y-31282095D01*
X86907714Y-31282095D01*
X87002952Y-31329714D01*
X87050571Y-31377333D01*
X87098190Y-31472571D01*
X87098190Y-31853523D01*
D11*
X39352976Y-45904761D02*
X40019642Y-47904761D01*
X40686309Y-45904761D01*
X42114880Y-47809523D02*
X41924404Y-47904761D01*
X41543452Y-47904761D01*
X41352976Y-47809523D01*
X41257738Y-47619047D01*
X41257738Y-46857142D01*
X41352976Y-46666666D01*
X41543452Y-46571428D01*
X41924404Y-46571428D01*
X42114880Y-46666666D01*
X42210119Y-46857142D01*
X42210119Y-47047619D01*
X41257738Y-47238095D01*
X43067261Y-47904761D02*
X43067261Y-46571428D01*
X43067261Y-46952380D02*
X43162500Y-46761904D01*
X43257738Y-46666666D01*
X43448214Y-46571428D01*
X43638690Y-46571428D01*
X44210119Y-47809523D02*
X44400595Y-47904761D01*
X44781547Y-47904761D01*
X44972023Y-47809523D01*
X45067261Y-47619047D01*
X45067261Y-47523809D01*
X44972023Y-47333333D01*
X44781547Y-47238095D01*
X44495833Y-47238095D01*
X44305357Y-47142857D01*
X44210119Y-46952380D01*
X44210119Y-46857142D01*
X44305357Y-46666666D01*
X44495833Y-46571428D01*
X44781547Y-46571428D01*
X44972023Y-46666666D01*
X45924404Y-47904761D02*
X45924404Y-46571428D01*
X45924404Y-45904761D02*
X45829166Y-46000000D01*
X45924404Y-46095238D01*
X46019642Y-46000000D01*
X45924404Y-45904761D01*
X45924404Y-46095238D01*
X47162500Y-47904761D02*
X46972023Y-47809523D01*
X46876785Y-47714285D01*
X46781547Y-47523809D01*
X46781547Y-46952380D01*
X46876785Y-46761904D01*
X46972023Y-46666666D01*
X47162500Y-46571428D01*
X47448214Y-46571428D01*
X47638690Y-46666666D01*
X47733928Y-46761904D01*
X47829166Y-46952380D01*
X47829166Y-47523809D01*
X47733928Y-47714285D01*
X47638690Y-47809523D01*
X47448214Y-47904761D01*
X47162500Y-47904761D01*
X48686309Y-46571428D02*
X48686309Y-47904761D01*
X48686309Y-46761904D02*
X48781547Y-46666666D01*
X48972023Y-46571428D01*
X49257738Y-46571428D01*
X49448214Y-46666666D01*
X49543452Y-46857142D01*
X49543452Y-47904761D01*
X53067261Y-47904761D02*
X51924404Y-47904761D01*
X52495833Y-47904761D02*
X52495833Y-45904761D01*
X52305357Y-46190476D01*
X52114880Y-46380952D01*
X51924404Y-46476190D01*
X53924404Y-47714285D02*
X54019642Y-47809523D01*
X53924404Y-47904761D01*
X53829166Y-47809523D01*
X53924404Y-47714285D01*
X53924404Y-47904761D01*
X55257738Y-45904761D02*
X55448214Y-45904761D01*
X55638690Y-46000000D01*
X55733928Y-46095238D01*
X55829166Y-46285714D01*
X55924404Y-46666666D01*
X55924404Y-47142857D01*
X55829166Y-47523809D01*
X55733928Y-47714285D01*
X55638690Y-47809523D01*
X55448214Y-47904761D01*
X55257738Y-47904761D01*
X55067261Y-47809523D01*
X54972023Y-47714285D01*
X54876785Y-47523809D01*
X54781547Y-47142857D01*
X54781547Y-46666666D01*
X54876785Y-46285714D01*
X54972023Y-46095238D01*
X55067261Y-46000000D01*
X55257738Y-45904761D01*
X39638690Y-44904761D02*
X39638690Y-42904761D01*
X41733928Y-44904761D02*
X41067261Y-43952380D01*
X40591071Y-44904761D02*
X40591071Y-42904761D01*
X41352976Y-42904761D01*
X41543452Y-43000000D01*
X41638690Y-43095238D01*
X41733928Y-43285714D01*
X41733928Y-43571428D01*
X41638690Y-43761904D01*
X41543452Y-43857142D01*
X41352976Y-43952380D01*
X40591071Y-43952380D01*
X45257738Y-44904761D02*
X44591071Y-43952380D01*
X44114880Y-44904761D02*
X44114880Y-42904761D01*
X44876785Y-42904761D01*
X45067261Y-43000000D01*
X45162500Y-43095238D01*
X45257738Y-43285714D01*
X45257738Y-43571428D01*
X45162500Y-43761904D01*
X45067261Y-43857142D01*
X44876785Y-43952380D01*
X44114880Y-43952380D01*
X47162500Y-43000000D02*
X46972023Y-42904761D01*
X46686309Y-42904761D01*
X46400595Y-43000000D01*
X46210119Y-43190476D01*
X46114880Y-43380952D01*
X46019642Y-43761904D01*
X46019642Y-44047619D01*
X46114880Y-44428571D01*
X46210119Y-44619047D01*
X46400595Y-44809523D01*
X46686309Y-44904761D01*
X46876785Y-44904761D01*
X47162500Y-44809523D01*
X47257738Y-44714285D01*
X47257738Y-44047619D01*
X46876785Y-44047619D01*
X48781547Y-43857142D02*
X49067261Y-43952380D01*
X49162500Y-44047619D01*
X49257738Y-44238095D01*
X49257738Y-44523809D01*
X49162500Y-44714285D01*
X49067261Y-44809523D01*
X48876785Y-44904761D01*
X48114880Y-44904761D01*
X48114880Y-42904761D01*
X48781547Y-42904761D01*
X48972023Y-43000000D01*
X49067261Y-43095238D01*
X49162500Y-43285714D01*
X49162500Y-43476190D01*
X49067261Y-43666666D01*
X48972023Y-43761904D01*
X48781547Y-43857142D01*
X48114880Y-43857142D01*
X52591071Y-44904761D02*
X51638690Y-44904761D01*
X51638690Y-42904761D01*
X53257738Y-43857142D02*
X53924404Y-43857142D01*
X54210119Y-44904761D02*
X53257738Y-44904761D01*
X53257738Y-42904761D01*
X54210119Y-42904761D01*
X55067261Y-44904761D02*
X55067261Y-42904761D01*
X55543452Y-42904761D01*
X55829166Y-43000000D01*
X56019642Y-43190476D01*
X56114880Y-43380952D01*
X56210119Y-43761904D01*
X56210119Y-44047619D01*
X56114880Y-44428571D01*
X56019642Y-44619047D01*
X55829166Y-44809523D01*
X55543452Y-44904761D01*
X55067261Y-44904761D01*
X56972023Y-44809523D02*
X57257738Y-44904761D01*
X57733928Y-44904761D01*
X57924404Y-44809523D01*
X58019642Y-44714285D01*
X58114880Y-44523809D01*
X58114880Y-44333333D01*
X58019642Y-44142857D01*
X57924404Y-44047619D01*
X57733928Y-43952380D01*
X57352976Y-43857142D01*
X57162500Y-43761904D01*
X57067261Y-43666666D01*
X56972023Y-43476190D01*
X56972023Y-43285714D01*
X57067261Y-43095238D01*
X57162500Y-43000000D01*
X57352976Y-42904761D01*
X57829166Y-42904761D01*
X58114880Y-43000000D01*
X58686309Y-42904761D02*
X59829166Y-42904761D01*
X59257738Y-44904761D02*
X59257738Y-42904761D01*
X61638690Y-44904761D02*
X60972023Y-43952380D01*
X60495833Y-44904761D02*
X60495833Y-42904761D01*
X61257738Y-42904761D01*
X61448214Y-43000000D01*
X61543452Y-43095238D01*
X61638690Y-43285714D01*
X61638690Y-43571428D01*
X61543452Y-43761904D01*
X61448214Y-43857142D01*
X61257738Y-43952380D01*
X60495833Y-43952380D01*
X62495833Y-44904761D02*
X62495833Y-42904761D01*
X63448214Y-44904761D02*
X63448214Y-42904761D01*
X64210119Y-42904761D01*
X64400595Y-43000000D01*
X64495833Y-43095238D01*
X64591071Y-43285714D01*
X64591071Y-43571428D01*
X64495833Y-43761904D01*
X64400595Y-43857142D01*
X64210119Y-43952380D01*
X63448214Y-43952380D01*
X66972023Y-44904761D02*
X66972023Y-42904761D01*
X67448214Y-42904761D01*
X67733928Y-43000000D01*
X67924404Y-43190476D01*
X68019642Y-43380952D01*
X68114880Y-43761904D01*
X68114880Y-44047619D01*
X68019642Y-44428571D01*
X67924404Y-44619047D01*
X67733928Y-44809523D01*
X67448214Y-44904761D01*
X66972023Y-44904761D01*
X70114880Y-44904761D02*
X69448214Y-43952380D01*
X68972023Y-44904761D02*
X68972023Y-42904761D01*
X69733928Y-42904761D01*
X69924404Y-43000000D01*
X70019642Y-43095238D01*
X70114880Y-43285714D01*
X70114880Y-43571428D01*
X70019642Y-43761904D01*
X69924404Y-43857142D01*
X69733928Y-43952380D01*
X68972023Y-43952380D01*
X70972023Y-44904761D02*
X70972023Y-42904761D01*
X71638690Y-42904761D02*
X72305357Y-44904761D01*
X72972023Y-42904761D01*
X73638690Y-43857142D02*
X74305357Y-43857142D01*
X74591071Y-44904761D02*
X73638690Y-44904761D01*
X73638690Y-42904761D01*
X74591071Y-42904761D01*
X76591071Y-44904761D02*
X75924404Y-43952380D01*
X75448214Y-44904761D02*
X75448214Y-42904761D01*
X76210119Y-42904761D01*
X76400595Y-43000000D01*
X76495833Y-43095238D01*
X76591071Y-43285714D01*
X76591071Y-43571428D01*
X76495833Y-43761904D01*
X76400595Y-43857142D01*
X76210119Y-43952380D01*
X75448214Y-43952380D01*
D12*
X79696000Y-9592000D02*
X81026000Y-9592000D01*
X79696000Y-10922000D02*
X79696000Y-9592000D01*
X82296000Y-9592000D02*
X84896000Y-9592000D01*
X82296000Y-12192000D02*
X82296000Y-9592000D01*
X79696000Y-12192000D02*
X82296000Y-12192000D01*
X84896000Y-9592000D02*
X84896000Y-17332000D01*
X79696000Y-12192000D02*
X79696000Y-17332000D01*
X79696000Y-17332000D02*
X84896000Y-17332000D01*
X77978000Y-31980000D02*
X77978000Y-31210000D01*
X77978000Y-23900000D02*
X77978000Y-24670000D01*
X79348000Y-31210000D02*
X79348000Y-24670000D01*
X76608000Y-31210000D02*
X79348000Y-31210000D01*
X76608000Y-24670000D02*
X76608000Y-31210000D01*
X79348000Y-24670000D02*
X76608000Y-24670000D01*
X35250000Y-10880000D02*
X35250000Y-11650000D01*
X35250000Y-18960000D02*
X35250000Y-18190000D01*
X33880000Y-11650000D02*
X33880000Y-18190000D01*
X36620000Y-11650000D02*
X33880000Y-11650000D01*
X36620000Y-18190000D02*
X36620000Y-11650000D01*
X33880000Y-18190000D02*
X36620000Y-18190000D01*
X82232000Y-20538000D02*
X82076000Y-20538000D01*
X84548000Y-20538000D02*
X84392000Y-20538000D01*
X82232163Y-23139130D02*
G75*
G02X82232000Y-21057039I1079837J1041130D01*
G01*
X84391837Y-23139130D02*
G75*
G03X84392000Y-21057039I-1079837J1041130D01*
G01*
X82233392Y-23770335D02*
G75*
G02X82076484Y-20538000I1078608J1672335D01*
G01*
X84390608Y-23770335D02*
G75*
G03X84547516Y-20538000I-1078608J1672335D01*
G01*
X38040000Y-3420000D02*
X38040000Y-3264000D01*
X38040000Y-5736000D02*
X38040000Y-5580000D01*
X35438870Y-3420163D02*
G75*
G02X37520961Y-3420000I1041130J-1079837D01*
G01*
X35438870Y-5579837D02*
G75*
G03X37520961Y-5580000I1041130J1079837D01*
G01*
X34807665Y-3421392D02*
G75*
G02X38040000Y-3264484I1672335J-1078608D01*
G01*
X34807665Y-5578608D02*
G75*
G03X38040000Y-5735516I1672335J1078608D01*
G01*
X56370000Y-22555000D02*
X56370000Y-22620000D01*
X56370000Y-20380000D02*
X56370000Y-20445000D01*
X53130000Y-22555000D02*
X53130000Y-22620000D01*
X53130000Y-20380000D02*
X53130000Y-20445000D01*
X53130000Y-22620000D02*
X56370000Y-22620000D01*
X53130000Y-20380000D02*
X56370000Y-20380000D01*
X27630000Y-25445000D02*
X27630000Y-25380000D01*
X27630000Y-27620000D02*
X27630000Y-27555000D01*
X30870000Y-25445000D02*
X30870000Y-25380000D01*
X30870000Y-27620000D02*
X30870000Y-27555000D01*
X30870000Y-25380000D02*
X27630000Y-25380000D01*
X30870000Y-27620000D02*
X27630000Y-27620000D01*
X21130000Y-25445000D02*
X21130000Y-25380000D01*
X21130000Y-27620000D02*
X21130000Y-27555000D01*
X24370000Y-25445000D02*
X24370000Y-25380000D01*
X24370000Y-27620000D02*
X24370000Y-27555000D01*
X24370000Y-25380000D02*
X21130000Y-25380000D01*
X24370000Y-27620000D02*
X21130000Y-27620000D01*
X15500000Y-1400000D02*
X15500000Y-3500000D01*
X15800000Y-1100000D02*
X14200000Y-1100000D01*
X15800000Y-2800000D02*
X15800000Y-1100000D01*
X15500000Y-10600000D02*
X13700000Y-10600000D01*
X15500000Y-8500000D02*
X15500000Y-10600000D01*
X800000Y-1400000D02*
X15500000Y-1400000D01*
X800000Y-10600000D02*
X800000Y-1400000D01*
X9300000Y-10600000D02*
X800000Y-10600000D01*
X82490000Y-29404000D02*
X83820000Y-29404000D01*
X82490000Y-30734000D02*
X82490000Y-29404000D01*
X82490000Y-32004000D02*
X85150000Y-32004000D01*
X85150000Y-32004000D02*
X85150000Y-39684000D01*
X82490000Y-32004000D02*
X82490000Y-39684000D01*
X82490000Y-39684000D02*
X85150000Y-39684000D01*
X18420000Y-16580000D02*
X17940000Y-16580000D01*
X18420000Y-26720000D02*
X18420000Y-16580000D01*
X17940000Y-26720000D02*
X18420000Y-26720000D01*
X14580000Y-16580000D02*
X15060000Y-16580000D01*
X14580000Y-26720000D02*
X14580000Y-16580000D01*
X15060000Y-26720000D02*
X14580000Y-26720000D01*
X12420000Y-16580000D02*
X11940000Y-16580000D01*
X12420000Y-26720000D02*
X12420000Y-16580000D01*
X11940000Y-26720000D02*
X12420000Y-26720000D01*
X8580000Y-16580000D02*
X9060000Y-16580000D01*
X8580000Y-26720000D02*
X8580000Y-16580000D01*
X9060000Y-26720000D02*
X8580000Y-26720000D01*
X6420000Y-16580000D02*
X5940000Y-16580000D01*
X6420000Y-26720000D02*
X6420000Y-16580000D01*
X5940000Y-26720000D02*
X6420000Y-26720000D01*
X2580000Y-16580000D02*
X3060000Y-16580000D01*
X2580000Y-26720000D02*
X2580000Y-16580000D01*
X3060000Y-26720000D02*
X2580000Y-26720000D01*
X50500000Y-30750000D02*
X49000000Y-30750000D01*
X46500000Y-32000000D02*
X46500000Y-36500000D01*
X49000000Y-37750000D02*
X50500000Y-37750000D01*
X53000000Y-36500000D02*
X53000000Y-32000000D01*
X70330000Y-1670000D02*
X70330000Y-3000000D01*
X69000000Y-1670000D02*
X70330000Y-1670000D01*
X67730000Y-1670000D02*
X67730000Y-4330000D01*
X67730000Y-4330000D02*
X62590000Y-4330000D01*
X67730000Y-1670000D02*
X62590000Y-1670000D01*
X62590000Y-1670000D02*
X62590000Y-4330000D01*
X39056000Y-10812000D02*
X39056000Y-12462000D01*
X74736000Y-10812000D02*
X39056000Y-10812000D01*
X74736000Y-16112000D02*
X74736000Y-10812000D01*
X39056000Y-16112000D02*
X74736000Y-16112000D01*
X39056000Y-14462000D02*
X39056000Y-16112000D01*
X39056000Y-12462000D02*
G75*
G02X39056000Y-14462000I0J-1000000D01*
G01*
X30420000Y-36690000D02*
X30420000Y-34150000D01*
X32960000Y-36690000D02*
X32960000Y-34150000D01*
X35500000Y-36690000D02*
X35500000Y-34150000D01*
X27840000Y-52580000D02*
X27840000Y-36690000D01*
X38080000Y-52580000D02*
X38080000Y-36690000D01*
X38080000Y-52580000D02*
X27840000Y-52580000D01*
X38080000Y-36690000D02*
X27840000Y-36690000D01*
X25660000Y-36690000D02*
X15420000Y-36690000D01*
X25660000Y-52580000D02*
X15420000Y-52580000D01*
X25660000Y-52580000D02*
X25660000Y-36690000D01*
X15420000Y-52580000D02*
X15420000Y-36690000D01*
X23080000Y-36690000D02*
X23080000Y-34150000D01*
X20540000Y-36690000D02*
X20540000Y-34150000D01*
X18000000Y-36690000D02*
X18000000Y-34150000D01*
X5420000Y-36690000D02*
X5420000Y-34150000D01*
X7960000Y-36690000D02*
X7960000Y-34150000D01*
X10500000Y-36690000D02*
X10500000Y-34150000D01*
X2840000Y-52580000D02*
X2840000Y-36690000D01*
X13080000Y-52580000D02*
X13080000Y-36690000D01*
X13080000Y-52580000D02*
X2840000Y-52580000D01*
X13080000Y-36690000D02*
X2840000Y-36690000D01*
X21420000Y-18310000D02*
X31660000Y-18310000D01*
X21420000Y-2420000D02*
X31660000Y-2420000D01*
X21420000Y-2420000D02*
X21420000Y-18310000D01*
X31660000Y-2420000D02*
X31660000Y-18310000D01*
X24000000Y-18310000D02*
X24000000Y-20850000D01*
X26540000Y-18310000D02*
X26540000Y-20850000D01*
X29080000Y-18310000D02*
X29080000Y-20850000D01*
X73152000Y-23900000D02*
X73152000Y-24670000D01*
X73152000Y-31980000D02*
X73152000Y-31210000D01*
X71782000Y-24670000D02*
X71782000Y-31210000D01*
X74522000Y-24670000D02*
X71782000Y-24670000D01*
X74522000Y-31210000D02*
X74522000Y-24670000D01*
X71782000Y-31210000D02*
X74522000Y-31210000D01*
X68326000Y-23900000D02*
X68326000Y-24670000D01*
X68326000Y-31980000D02*
X68326000Y-31210000D01*
X66956000Y-24670000D02*
X66956000Y-31210000D01*
X69696000Y-24670000D02*
X66956000Y-24670000D01*
X69696000Y-31210000D02*
X69696000Y-24670000D01*
X66956000Y-31210000D02*
X69696000Y-31210000D01*
X44810000Y-2630000D02*
X44810000Y-5370000D01*
X44810000Y-5370000D02*
X51350000Y-5370000D01*
X51350000Y-5370000D02*
X51350000Y-2630000D01*
X51350000Y-2630000D02*
X44810000Y-2630000D01*
X44040000Y-4000000D02*
X44810000Y-4000000D01*
X52120000Y-4000000D02*
X51350000Y-4000000D01*
X39060000Y-25130000D02*
X39060000Y-27870000D01*
X39060000Y-27870000D02*
X45600000Y-27870000D01*
X45600000Y-27870000D02*
X45600000Y-25130000D01*
X45600000Y-25130000D02*
X39060000Y-25130000D01*
X38290000Y-26500000D02*
X39060000Y-26500000D01*
X46370000Y-26500000D02*
X45600000Y-26500000D01*
X62384000Y-31210000D02*
X65124000Y-31210000D01*
X65124000Y-31210000D02*
X65124000Y-24670000D01*
X65124000Y-24670000D02*
X62384000Y-24670000D01*
X62384000Y-24670000D02*
X62384000Y-31210000D01*
X63754000Y-31980000D02*
X63754000Y-31210000D01*
X63754000Y-23900000D02*
X63754000Y-24670000D01*
D10*
X81962666Y-8044380D02*
X81962666Y-8758666D01*
X81915047Y-8901523D01*
X81819809Y-8996761D01*
X81676952Y-9044380D01*
X81581714Y-9044380D01*
X82343619Y-8044380D02*
X82962666Y-8044380D01*
X82629333Y-8425333D01*
X82772190Y-8425333D01*
X82867428Y-8472952D01*
X82915047Y-8520571D01*
X82962666Y-8615809D01*
X82962666Y-8853904D01*
X82915047Y-8949142D01*
X82867428Y-8996761D01*
X82772190Y-9044380D01*
X82486476Y-9044380D01*
X82391238Y-8996761D01*
X82343619Y-8949142D01*
X76144380Y-28582857D02*
X75668190Y-28916190D01*
X76144380Y-29154285D02*
X75144380Y-29154285D01*
X75144380Y-28773333D01*
X75192000Y-28678095D01*
X75239619Y-28630476D01*
X75334857Y-28582857D01*
X75477714Y-28582857D01*
X75572952Y-28630476D01*
X75620571Y-28678095D01*
X75668190Y-28773333D01*
X75668190Y-29154285D01*
X76144380Y-27630476D02*
X76144380Y-28201904D01*
X76144380Y-27916190D02*
X75144380Y-27916190D01*
X75287238Y-28011428D01*
X75382476Y-28106666D01*
X75430095Y-28201904D01*
X75144380Y-27011428D02*
X75144380Y-26916190D01*
X75192000Y-26820952D01*
X75239619Y-26773333D01*
X75334857Y-26725714D01*
X75525333Y-26678095D01*
X75763428Y-26678095D01*
X75953904Y-26725714D01*
X76049142Y-26773333D01*
X76096761Y-26820952D01*
X76144380Y-26916190D01*
X76144380Y-27011428D01*
X76096761Y-27106666D01*
X76049142Y-27154285D01*
X75953904Y-27201904D01*
X75763428Y-27249523D01*
X75525333Y-27249523D01*
X75334857Y-27201904D01*
X75239619Y-27154285D01*
X75192000Y-27106666D01*
X75144380Y-27011428D01*
X33332380Y-15086666D02*
X32856190Y-15420000D01*
X33332380Y-15658095D02*
X32332380Y-15658095D01*
X32332380Y-15277142D01*
X32380000Y-15181904D01*
X32427619Y-15134285D01*
X32522857Y-15086666D01*
X32665714Y-15086666D01*
X32760952Y-15134285D01*
X32808571Y-15181904D01*
X32856190Y-15277142D01*
X32856190Y-15658095D01*
X33332380Y-14610476D02*
X33332380Y-14420000D01*
X33284761Y-14324761D01*
X33237142Y-14277142D01*
X33094285Y-14181904D01*
X32903809Y-14134285D01*
X32522857Y-14134285D01*
X32427619Y-14181904D01*
X32380000Y-14229523D01*
X32332380Y-14324761D01*
X32332380Y-14515238D01*
X32380000Y-14610476D01*
X32427619Y-14658095D01*
X32522857Y-14705714D01*
X32760952Y-14705714D01*
X32856190Y-14658095D01*
X32903809Y-14610476D01*
X32951428Y-14515238D01*
X32951428Y-14324761D01*
X32903809Y-14229523D01*
X32856190Y-14181904D01*
X32760952Y-14134285D01*
X86724380Y-22836095D02*
X85724380Y-22836095D01*
X85724380Y-22598000D01*
X85772000Y-22455142D01*
X85867238Y-22359904D01*
X85962476Y-22312285D01*
X86152952Y-22264666D01*
X86295809Y-22264666D01*
X86486285Y-22312285D01*
X86581523Y-22359904D01*
X86676761Y-22455142D01*
X86724380Y-22598000D01*
X86724380Y-22836095D01*
X85819619Y-21883714D02*
X85772000Y-21836095D01*
X85724380Y-21740857D01*
X85724380Y-21502761D01*
X85772000Y-21407523D01*
X85819619Y-21359904D01*
X85914857Y-21312285D01*
X86010095Y-21312285D01*
X86152952Y-21359904D01*
X86724380Y-21931333D01*
X86724380Y-21312285D01*
X35741904Y-7912380D02*
X35741904Y-6912380D01*
X35980000Y-6912380D01*
X36122857Y-6960000D01*
X36218095Y-7055238D01*
X36265714Y-7150476D01*
X36313333Y-7340952D01*
X36313333Y-7483809D01*
X36265714Y-7674285D01*
X36218095Y-7769523D01*
X36122857Y-7864761D01*
X35980000Y-7912380D01*
X35741904Y-7912380D01*
X37265714Y-7912380D02*
X36694285Y-7912380D01*
X36980000Y-7912380D02*
X36980000Y-6912380D01*
X36884761Y-7055238D01*
X36789523Y-7150476D01*
X36694285Y-7198095D01*
X54583333Y-19915142D02*
X54535714Y-19962761D01*
X54392857Y-20010380D01*
X54297619Y-20010380D01*
X54154761Y-19962761D01*
X54059523Y-19867523D01*
X54011904Y-19772285D01*
X53964285Y-19581809D01*
X53964285Y-19438952D01*
X54011904Y-19248476D01*
X54059523Y-19153238D01*
X54154761Y-19058000D01*
X54297619Y-19010380D01*
X54392857Y-19010380D01*
X54535714Y-19058000D01*
X54583333Y-19105619D01*
X55535714Y-20010380D02*
X54964285Y-20010380D01*
X55250000Y-20010380D02*
X55250000Y-19010380D01*
X55154761Y-19153238D01*
X55059523Y-19248476D01*
X54964285Y-19296095D01*
X29083333Y-29107142D02*
X29035714Y-29154761D01*
X28892857Y-29202380D01*
X28797619Y-29202380D01*
X28654761Y-29154761D01*
X28559523Y-29059523D01*
X28511904Y-28964285D01*
X28464285Y-28773809D01*
X28464285Y-28630952D01*
X28511904Y-28440476D01*
X28559523Y-28345238D01*
X28654761Y-28250000D01*
X28797619Y-28202380D01*
X28892857Y-28202380D01*
X29035714Y-28250000D01*
X29083333Y-28297619D01*
X29464285Y-28297619D02*
X29511904Y-28250000D01*
X29607142Y-28202380D01*
X29845238Y-28202380D01*
X29940476Y-28250000D01*
X29988095Y-28297619D01*
X30035714Y-28392857D01*
X30035714Y-28488095D01*
X29988095Y-28630952D01*
X29416666Y-29202380D01*
X30035714Y-29202380D01*
X22583333Y-29107142D02*
X22535714Y-29154761D01*
X22392857Y-29202380D01*
X22297619Y-29202380D01*
X22154761Y-29154761D01*
X22059523Y-29059523D01*
X22011904Y-28964285D01*
X21964285Y-28773809D01*
X21964285Y-28630952D01*
X22011904Y-28440476D01*
X22059523Y-28345238D01*
X22154761Y-28250000D01*
X22297619Y-28202380D01*
X22392857Y-28202380D01*
X22535714Y-28250000D01*
X22583333Y-28297619D01*
X22916666Y-28202380D02*
X23535714Y-28202380D01*
X23202380Y-28583333D01*
X23345238Y-28583333D01*
X23440476Y-28630952D01*
X23488095Y-28678571D01*
X23535714Y-28773809D01*
X23535714Y-29011904D01*
X23488095Y-29107142D01*
X23440476Y-29154761D01*
X23345238Y-29202380D01*
X23059523Y-29202380D01*
X22964285Y-29154761D01*
X22916666Y-29107142D01*
X16452380Y-6333333D02*
X17166666Y-6333333D01*
X17309523Y-6380952D01*
X17404761Y-6476190D01*
X17452380Y-6619047D01*
X17452380Y-6714285D01*
X17452380Y-5333333D02*
X17452380Y-5904761D01*
X17452380Y-5619047D02*
X16452380Y-5619047D01*
X16595238Y-5714285D01*
X16690476Y-5809523D01*
X16738095Y-5904761D01*
X83486666Y-27856380D02*
X83486666Y-28570666D01*
X83439047Y-28713523D01*
X83343809Y-28808761D01*
X83200952Y-28856380D01*
X83105714Y-28856380D01*
X83915238Y-27951619D02*
X83962857Y-27904000D01*
X84058095Y-27856380D01*
X84296190Y-27856380D01*
X84391428Y-27904000D01*
X84439047Y-27951619D01*
X84486666Y-28046857D01*
X84486666Y-28142095D01*
X84439047Y-28284952D01*
X83867619Y-28856380D01*
X84486666Y-28856380D01*
X14032380Y-21816666D02*
X13556190Y-22150000D01*
X14032380Y-22388095D02*
X13032380Y-22388095D01*
X13032380Y-22007142D01*
X13080000Y-21911904D01*
X13127619Y-21864285D01*
X13222857Y-21816666D01*
X13365714Y-21816666D01*
X13460952Y-21864285D01*
X13508571Y-21911904D01*
X13556190Y-22007142D01*
X13556190Y-22388095D01*
X14032380Y-20864285D02*
X14032380Y-21435714D01*
X14032380Y-21150000D02*
X13032380Y-21150000D01*
X13175238Y-21245238D01*
X13270476Y-21340476D01*
X13318095Y-21435714D01*
X8032380Y-21816666D02*
X7556190Y-22150000D01*
X8032380Y-22388095D02*
X7032380Y-22388095D01*
X7032380Y-22007142D01*
X7080000Y-21911904D01*
X7127619Y-21864285D01*
X7222857Y-21816666D01*
X7365714Y-21816666D01*
X7460952Y-21864285D01*
X7508571Y-21911904D01*
X7556190Y-22007142D01*
X7556190Y-22388095D01*
X7032380Y-21483333D02*
X7032380Y-20864285D01*
X7413333Y-21197619D01*
X7413333Y-21054761D01*
X7460952Y-20959523D01*
X7508571Y-20911904D01*
X7603809Y-20864285D01*
X7841904Y-20864285D01*
X7937142Y-20911904D01*
X7984761Y-20959523D01*
X8032380Y-21054761D01*
X8032380Y-21340476D01*
X7984761Y-21435714D01*
X7937142Y-21483333D01*
X2032380Y-21816666D02*
X1556190Y-22150000D01*
X2032380Y-22388095D02*
X1032380Y-22388095D01*
X1032380Y-22007142D01*
X1080000Y-21911904D01*
X1127619Y-21864285D01*
X1222857Y-21816666D01*
X1365714Y-21816666D01*
X1460952Y-21864285D01*
X1508571Y-21911904D01*
X1556190Y-22007142D01*
X1556190Y-22388095D01*
X1032380Y-20911904D02*
X1032380Y-21388095D01*
X1508571Y-21435714D01*
X1460952Y-21388095D01*
X1413333Y-21292857D01*
X1413333Y-21054761D01*
X1460952Y-20959523D01*
X1508571Y-20911904D01*
X1603809Y-20864285D01*
X1841904Y-20864285D01*
X1937142Y-20911904D01*
X1984761Y-20959523D01*
X2032380Y-21054761D01*
X2032380Y-21292857D01*
X1984761Y-21388095D01*
X1937142Y-21435714D01*
X45904761Y-35583333D02*
X45952380Y-35440476D01*
X45952380Y-35202380D01*
X45904761Y-35107142D01*
X45857142Y-35059523D01*
X45761904Y-35011904D01*
X45666666Y-35011904D01*
X45571428Y-35059523D01*
X45523809Y-35107142D01*
X45476190Y-35202380D01*
X45428571Y-35392857D01*
X45380952Y-35488095D01*
X45333333Y-35535714D01*
X45238095Y-35583333D01*
X45142857Y-35583333D01*
X45047619Y-35535714D01*
X45000000Y-35488095D01*
X44952380Y-35392857D01*
X44952380Y-35154761D01*
X45000000Y-35011904D01*
X44952380Y-34678571D02*
X45952380Y-34440476D01*
X45238095Y-34250000D01*
X45952380Y-34059523D01*
X44952380Y-33821428D01*
X45952380Y-32916666D02*
X45952380Y-33488095D01*
X45952380Y-33202380D02*
X44952380Y-33202380D01*
X45095238Y-33297619D01*
X45190476Y-33392857D01*
X45238095Y-33488095D01*
X70782380Y-3761904D02*
X71591904Y-3761904D01*
X71687142Y-3714285D01*
X71734761Y-3666666D01*
X71782380Y-3571428D01*
X71782380Y-3380952D01*
X71734761Y-3285714D01*
X71687142Y-3238095D01*
X71591904Y-3190476D01*
X70782380Y-3190476D01*
X71782380Y-2190476D02*
X71782380Y-2761904D01*
X71782380Y-2476190D02*
X70782380Y-2476190D01*
X70925238Y-2571428D01*
X71020476Y-2666666D01*
X71068095Y-2761904D01*
X37508380Y-14223904D02*
X38317904Y-14223904D01*
X38413142Y-14176285D01*
X38460761Y-14128666D01*
X38508380Y-14033428D01*
X38508380Y-13842952D01*
X38460761Y-13747714D01*
X38413142Y-13700095D01*
X38317904Y-13652476D01*
X37508380Y-13652476D01*
X37508380Y-13271523D02*
X37508380Y-12652476D01*
X37889333Y-12985809D01*
X37889333Y-12842952D01*
X37936952Y-12747714D01*
X37984571Y-12700095D01*
X38079809Y-12652476D01*
X38317904Y-12652476D01*
X38413142Y-12700095D01*
X38460761Y-12747714D01*
X38508380Y-12842952D01*
X38508380Y-13128666D01*
X38460761Y-13223904D01*
X38413142Y-13271523D01*
X32864761Y-54127619D02*
X32769523Y-54080000D01*
X32674285Y-53984761D01*
X32531428Y-53841904D01*
X32436190Y-53794285D01*
X32340952Y-53794285D01*
X32388571Y-54032380D02*
X32293333Y-53984761D01*
X32198095Y-53889523D01*
X32150476Y-53699047D01*
X32150476Y-53365714D01*
X32198095Y-53175238D01*
X32293333Y-53080000D01*
X32388571Y-53032380D01*
X32579047Y-53032380D01*
X32674285Y-53080000D01*
X32769523Y-53175238D01*
X32817142Y-53365714D01*
X32817142Y-53699047D01*
X32769523Y-53889523D01*
X32674285Y-53984761D01*
X32579047Y-54032380D01*
X32388571Y-54032380D01*
X33769523Y-54032380D02*
X33198095Y-54032380D01*
X33483809Y-54032380D02*
X33483809Y-53032380D01*
X33388571Y-53175238D01*
X33293333Y-53270476D01*
X33198095Y-53318095D01*
X20444761Y-54127619D02*
X20349523Y-54080000D01*
X20254285Y-53984761D01*
X20111428Y-53841904D01*
X20016190Y-53794285D01*
X19920952Y-53794285D01*
X19968571Y-54032380D02*
X19873333Y-53984761D01*
X19778095Y-53889523D01*
X19730476Y-53699047D01*
X19730476Y-53365714D01*
X19778095Y-53175238D01*
X19873333Y-53080000D01*
X19968571Y-53032380D01*
X20159047Y-53032380D01*
X20254285Y-53080000D01*
X20349523Y-53175238D01*
X20397142Y-53365714D01*
X20397142Y-53699047D01*
X20349523Y-53889523D01*
X20254285Y-53984761D01*
X20159047Y-54032380D01*
X19968571Y-54032380D01*
X20778095Y-53127619D02*
X20825714Y-53080000D01*
X20920952Y-53032380D01*
X21159047Y-53032380D01*
X21254285Y-53080000D01*
X21301904Y-53127619D01*
X21349523Y-53222857D01*
X21349523Y-53318095D01*
X21301904Y-53460952D01*
X20730476Y-54032380D01*
X21349523Y-54032380D01*
X7864761Y-54127619D02*
X7769523Y-54080000D01*
X7674285Y-53984761D01*
X7531428Y-53841904D01*
X7436190Y-53794285D01*
X7340952Y-53794285D01*
X7388571Y-54032380D02*
X7293333Y-53984761D01*
X7198095Y-53889523D01*
X7150476Y-53699047D01*
X7150476Y-53365714D01*
X7198095Y-53175238D01*
X7293333Y-53080000D01*
X7388571Y-53032380D01*
X7579047Y-53032380D01*
X7674285Y-53080000D01*
X7769523Y-53175238D01*
X7817142Y-53365714D01*
X7817142Y-53699047D01*
X7769523Y-53889523D01*
X7674285Y-53984761D01*
X7579047Y-54032380D01*
X7388571Y-54032380D01*
X8150476Y-53032380D02*
X8769523Y-53032380D01*
X8436190Y-53413333D01*
X8579047Y-53413333D01*
X8674285Y-53460952D01*
X8721904Y-53508571D01*
X8769523Y-53603809D01*
X8769523Y-53841904D01*
X8721904Y-53937142D01*
X8674285Y-53984761D01*
X8579047Y-54032380D01*
X8293333Y-54032380D01*
X8198095Y-53984761D01*
X8150476Y-53937142D01*
X25778095Y-872380D02*
X25778095Y-1681904D01*
X25825714Y-1777142D01*
X25873333Y-1824761D01*
X25968571Y-1872380D01*
X26159047Y-1872380D01*
X26254285Y-1824761D01*
X26301904Y-1777142D01*
X26349523Y-1681904D01*
X26349523Y-872380D01*
X26778095Y-967619D02*
X26825714Y-920000D01*
X26920952Y-872380D01*
X27159047Y-872380D01*
X27254285Y-920000D01*
X27301904Y-967619D01*
X27349523Y-1062857D01*
X27349523Y-1158095D01*
X27301904Y-1300952D01*
X26730476Y-1872380D01*
X27349523Y-1872380D01*
X71234380Y-28106666D02*
X70758190Y-28440000D01*
X71234380Y-28678095D02*
X70234380Y-28678095D01*
X70234380Y-28297142D01*
X70282000Y-28201904D01*
X70329619Y-28154285D01*
X70424857Y-28106666D01*
X70567714Y-28106666D01*
X70662952Y-28154285D01*
X70710571Y-28201904D01*
X70758190Y-28297142D01*
X70758190Y-28678095D01*
X70329619Y-27725714D02*
X70282000Y-27678095D01*
X70234380Y-27582857D01*
X70234380Y-27344761D01*
X70282000Y-27249523D01*
X70329619Y-27201904D01*
X70424857Y-27154285D01*
X70520095Y-27154285D01*
X70662952Y-27201904D01*
X71234380Y-27773333D01*
X71234380Y-27154285D01*
X66408380Y-28106666D02*
X65932190Y-28440000D01*
X66408380Y-28678095D02*
X65408380Y-28678095D01*
X65408380Y-28297142D01*
X65456000Y-28201904D01*
X65503619Y-28154285D01*
X65598857Y-28106666D01*
X65741714Y-28106666D01*
X65836952Y-28154285D01*
X65884571Y-28201904D01*
X65932190Y-28297142D01*
X65932190Y-28678095D01*
X65741714Y-27249523D02*
X66408380Y-27249523D01*
X65360761Y-27487619D02*
X66075047Y-27725714D01*
X66075047Y-27106666D01*
X47913333Y-2082380D02*
X47580000Y-1606190D01*
X47341904Y-2082380D02*
X47341904Y-1082380D01*
X47722857Y-1082380D01*
X47818095Y-1130000D01*
X47865714Y-1177619D01*
X47913333Y-1272857D01*
X47913333Y-1415714D01*
X47865714Y-1510952D01*
X47818095Y-1558571D01*
X47722857Y-1606190D01*
X47341904Y-1606190D01*
X48770476Y-1082380D02*
X48580000Y-1082380D01*
X48484761Y-1130000D01*
X48437142Y-1177619D01*
X48341904Y-1320476D01*
X48294285Y-1510952D01*
X48294285Y-1891904D01*
X48341904Y-1987142D01*
X48389523Y-2034761D01*
X48484761Y-2082380D01*
X48675238Y-2082380D01*
X48770476Y-2034761D01*
X48818095Y-1987142D01*
X48865714Y-1891904D01*
X48865714Y-1653809D01*
X48818095Y-1558571D01*
X48770476Y-1510952D01*
X48675238Y-1463333D01*
X48484761Y-1463333D01*
X48389523Y-1510952D01*
X48341904Y-1558571D01*
X48294285Y-1653809D01*
X42163333Y-24582380D02*
X41830000Y-24106190D01*
X41591904Y-24582380D02*
X41591904Y-23582380D01*
X41972857Y-23582380D01*
X42068095Y-23630000D01*
X42115714Y-23677619D01*
X42163333Y-23772857D01*
X42163333Y-23915714D01*
X42115714Y-24010952D01*
X42068095Y-24058571D01*
X41972857Y-24106190D01*
X41591904Y-24106190D01*
X42496666Y-23582380D02*
X43163333Y-23582380D01*
X42734761Y-24582380D01*
X61836380Y-28106666D02*
X61360190Y-28440000D01*
X61836380Y-28678095D02*
X60836380Y-28678095D01*
X60836380Y-28297142D01*
X60884000Y-28201904D01*
X60931619Y-28154285D01*
X61026857Y-28106666D01*
X61169714Y-28106666D01*
X61264952Y-28154285D01*
X61312571Y-28201904D01*
X61360190Y-28297142D01*
X61360190Y-28678095D01*
X61264952Y-27535238D02*
X61217333Y-27630476D01*
X61169714Y-27678095D01*
X61074476Y-27725714D01*
X61026857Y-27725714D01*
X60931619Y-27678095D01*
X60884000Y-27630476D01*
X60836380Y-27535238D01*
X60836380Y-27344761D01*
X60884000Y-27249523D01*
X60931619Y-27201904D01*
X61026857Y-27154285D01*
X61074476Y-27154285D01*
X61169714Y-27201904D01*
X61217333Y-27249523D01*
X61264952Y-27344761D01*
X61264952Y-27535238D01*
X61312571Y-27630476D01*
X61360190Y-27678095D01*
X61455428Y-27725714D01*
X61645904Y-27725714D01*
X61741142Y-27678095D01*
X61788761Y-27630476D01*
X61836380Y-27535238D01*
X61836380Y-27344761D01*
X61788761Y-27249523D01*
X61741142Y-27201904D01*
X61645904Y-27154285D01*
X61455428Y-27154285D01*
X61360190Y-27201904D01*
X61312571Y-27249523D01*
X61264952Y-27344761D01*
M02*
